<?xml version="1.0" standalone="no"?>
<!DOCTYPE svg PUBLIC "-//W3C//DTD SVG 20010904//EN"
 "http://www.w3.org/TR/2001/REC-SVG-20010904/DTD/svg10.dtd">
<svg version="1.0" xmlns="http://www.w3.org/2000/svg"
 width="51px" height="50px" viewBox="0 0 300.000000 188.000000"
 preserveAspectRatio="xMidYMid meet">
<metadata>
Created by potrace 1.10, written by Peter Selinger 2001-2011
</metadata>
<g transform="translate(0.000000,188.000000) scale(0.100000,-0.100000)"
fill="#fff" stroke="#fff">
<path d="M1732 1602 c-109 -39 -176 -137 -175 -252 1 -106 15 -127 226 -348
l79 -84 -44 -46 c-24 -26 -83 -89 -132 -140 -105 -111 -130 -160 -129 -252 1
-109 51 -188 156 -242 60 -31 156 -31 219 0 43 21 159 131 261 246 l35 40 138
-141 c130 -133 143 -143 197 -158 229 -65 428 182 310 385 -39 67 -873 951
-925 980 -56 31 -147 36 -216 12z m198 -39 c22 -9 90 -75 196 -189 243 -260
424 -453 530 -564 208 -218 218 -233 217 -325 0 -70 -18 -117 -62 -163 -82
-84 -219 -97 -306 -29 -22 18 -87 80 -144 139 -81 85 -110 108 -131 108 -21 0
-50 -25 -141 -120 -63 -67 -129 -130 -148 -141 -53 -31 -155 -37 -211 -11 -89
41 -140 122 -140 224 0 86 6 95 208 310 100 107 102 121 34 193 -157 168 -206
223 -220 250 -12 21 -17 55 -17 110 0 84 11 111 72 173 54 54 176 71 263 35z"/>
<path d="M2546 1605 c-52 -18 -84 -43 -123 -94 -78 -101 -71 -236 15 -333 63
-69 111 -92 197 -92 88 0 148 27 205 91 152 173 27 445 -204 443 -28 -1 -69
-7 -90 -15z m168 -26 c58 -16 131 -94 151 -161 24 -86 9 -151 -51 -218 -51
-57 -103 -81 -173 -82 -71 -1 -121 22 -177 79 -87 91 -86 220 2 313 68 72 153
95 248 69z"/>
<path d="M255 1593 c-48 -25 -94 -73 -111 -118 -13 -36 -15 -93 -12 -416 4
-353 5 -378 26 -439 65 -195 230 -361 428 -431 83 -30 264 -37 359 -15 230 54
411 223 491 456 17 50 19 89 19 446 l0 390 -28 42 c-98 148 -313 130 -388 -33
-17 -36 -19 -71 -19 -371 l0 -332 -28 -53 c-17 -34 -44 -65 -71 -84 -39 -28
-50 -30 -126 -30 -77 0 -86 2 -127 31 -23 17 -55 53 -70 80 l-28 49 0 338 c0
368 -2 381 -58 440 -44 47 -94 67 -164 67 -37 -1 -75 -7 -93 -17z m168 -28
c19 -8 47 -28 61 -46 54 -63 55 -74 55 -417 0 -174 3 -330 6 -345 12 -61 78
-139 142 -168 55 -25 154 -27 208 -5 68 29 136 109 151 180 3 11 6 165 8 341
2 176 5 327 7 335 2 8 16 34 31 56 27 41 71 69 125 80 69 14 171 -44 199 -113
20 -47 19 -681 0 -773 -47 -219 -235 -420 -446 -475 -80 -22 -118 -25 -205
-21 -201 9 -378 108 -492 274 -101 147 -112 206 -113 623 0 353 2 372 54 428
55 60 135 77 209 46z"/>
</g>
</svg>
