<?xml version="1.0" standalone="no"?>
<!DOCTYPE svg PUBLIC "-//W3C//DTD SVG 20010904//EN"
 "http://www.w3.org/TR/2001/REC-SVG-20010904/DTD/svg10.dtd">
<svg version="1.0" xmlns="http://www.w3.org/2000/svg"
 width="50px" height="51px" viewBox="0 0 225.000000 225.000000"
 preserveAspectRatio="xMidYMid meet">
<metadata>
Created by potrace 1.10, written by Peter Selinger 2001-2011
</metadata>
<g transform="translate(0.000000,225.000000) scale(0.100000,-0.100000)"
fill="#fff" stroke="none">
<path d="M980 2028 l0 -148 145 0 145 0 0 148 0 148 -145 -1 -145 0 0 -147z
m245 2 l0 -95 -102 -3 -103 -3 0 94 c0 52 3 97 7 101 4 4 50 5 103 4 l95 -3 0
-95z"/>
<path d="M83 2115 c-38 -16 -53 -42 -53 -90 0 -68 70 -110 132 -81 29 14 67
16 234 14 l199 -3 -47 -28 c-116 -68 -247 -206 -328 -342 -35 -62 -100 -211
-100 -232 0 -4 33 -8 72 -8 l73 0 27 62 c59 140 194 304 322 392 25 18 84 50
131 73 l85 40 0 94 0 94 -319 0 c-263 0 -324 3 -347 15 -35 18 -40 18 -81 0z
m392 -54 l310 -6 3 -57 3 -57 -88 -45 c-179 -93 -326 -240 -419 -418 -41 -81
-47 -88 -74 -88 -40 0 -39 16 6 104 78 152 174 268 309 371 95 73 105 100 46
125 -30 12 -365 8 -434 -5 -45 -9 -67 6 -67 44 0 40 19 54 60 46 19 -4 174
-10 345 -14z"/>
<path d="M2086 2115 c-23 -12 -84 -15 -347 -15 l-319 0 0 -94 0 -94 87 -41
c159 -77 289 -191 384 -340 26 -41 57 -99 69 -130 l21 -56 75 0 75 0 -6 25
c-46 182 -240 444 -406 546 l-63 39 199 3 c166 2 204 0 233 -14 62 -29 132 13
132 81 0 49 -15 74 -55 91 -42 17 -43 17 -79 -1z m78 -51 c21 -20 20 -48 -1
-69 -12 -13 -25 -15 -52 -10 -66 13 -403 17 -432 5 -59 -25 -49 -52 45 -124
137 -105 241 -231 311 -378 43 -89 43 -98 5 -98 -27 0 -33 7 -65 71 -49 96
-96 161 -179 247 -83 87 -163 146 -264 196 l-73 37 3 57 3 57 307 5 c168 3
310 8 314 13 13 13 62 8 78 -9z"/>
<path d="M947 1582 c-65 -178 -166 -393 -232 -492 -49 -73 -135 -160 -160
-160 -12 0 -15 -14 -15 -75 0 -69 2 -75 20 -75 64 0 157 -75 201 -162 16 -32
34 -90 41 -130 l11 -73 311 0 311 0 11 71 c6 38 24 96 40 128 43 87 139 166
204 166 18 0 20 6 20 75 0 61 -3 75 -15 75 -25 0 -111 87 -160 160 -66 99
-167 313 -232 492 -51 139 -61 158 -80 158 l-23 0 0 -337 1 -338 43 -26 c94
-57 127 -179 77 -282 -76 -155 -299 -161 -387 -11 -59 100 -26 234 72 293 l43
26 1 338 0 337 -22 0 c-20 0 -30 -18 -81 -158z m63 -233 l0 -250 -44 -40 c-99
-90 -127 -209 -73 -315 48 -95 130 -147 232 -147 240 -1 344 295 161 460 l-46
42 0 245 c0 135 4 246 8 246 4 0 28 -51 52 -112 58 -149 164 -358 223 -441 26
-36 70 -85 97 -108 62 -52 68 -90 19 -117 -118 -65 -183 -141 -215 -250 -9
-31 -20 -67 -25 -79 l-9 -23 -270 0 -270 0 -6 28 c-33 153 -98 250 -211 311
-38 20 -49 32 -51 55 -3 24 6 38 56 85 33 31 84 94 114 141 82 125 106 177
238 498 5 12 12 22 15 22 3 0 5 -113 5 -251z"/>
<path d="M0 1175 l0 -25 125 0 126 0 -3 -97 -3 -98 -122 -3 c-114 -2 -123 -4
-123 -22 0 -18 10 -19 145 -22 l145 -3 0 148 0 147 -145 0 -145 0 0 -25z"/>
<path d="M1960 1053 l0 -148 145 3 c135 3 145 4 145 22 0 18 -9 20 -122 22
l-123 3 -3 98 -3 97 126 0 125 0 0 25 0 25 -145 0 -145 0 0 -147z"/>
<path d="M1075 905 c-39 -38 -28 -93 23 -114 59 -25 116 32 92 93 -18 50 -76
60 -115 21z m73 -48 c4 -20 -25 -34 -40 -19 -15 15 -1 44 19 40 10 -2 19 -11
21 -21z"/>
<path d="M685 173 l0 -98 440 0 440 0 0 98 0 97 -440 0 -440 0 0 -97z m833 0
l3 -53 -395 0 -396 0 0 48 c0 27 3 52 7 55 4 4 180 6 392 5 l386 -3 3 -52z"/>
</g>
</svg>
